<svg width="24" height="24" viewBox="0 0 24 24" fill="none" xmlns="http://www.w3.org/2000/svg">
<path fill-rule="evenodd" clip-rule="evenodd" d="M22.6894 2.29545C22.8102 2.01356 22.7472 1.68653 22.5303 1.46968C22.3135 1.25282 21.9864 1.18984 21.7046 1.31065L1.70456 9.88208C1.41836 10.0047 1.23771 10.2915 1.25065 10.6026C1.26359 10.9137 1.46743 11.1845 1.76283 11.2829L9.97851 14.0215L12.7171 22.2372C12.8155 22.5326 13.0863 22.7364 13.3974 22.7494C13.7085 22.7623 13.9953 22.5817 14.1179 22.2954L22.6894 2.29545Z" fill="#5E94FF"/>
<path fill-rule="evenodd" clip-rule="evenodd" d="M22.6324 2.4282L22.0303 3.03033L11.0303 14.0303L10.2436 14.817L9.97848 14.0215L9.18298 13.7563L9.96964 12.9697L20.9696 1.96967L21.5718 1.36753L21.7045 1.31063C21.9864 1.18983 22.3134 1.25281 22.5303 1.46966C22.7472 1.68652 22.8101 2.01355 22.6893 2.29543L22.6324 2.4282Z" fill="#7EA9FF"/>
</svg>
