<svg width="24" height="24" viewBox="0 0 24 24" fill="none" xmlns="http://www.w3.org/2000/svg">
<path fill-rule="evenodd" clip-rule="evenodd" d="M19.7056 5.25734C17.7317 3.34268 14.5783 3.25097 12.4924 4.98816C12.3495 5.10722 12.1741 5.16466 12 5.16175C11.8259 5.16466 11.6505 5.10722 11.5076 4.98816C9.42172 3.25097 6.26829 3.34268 4.29439 5.25734C2.33113 7.16167 2.24071 10.1838 4.01715 12.1907C4.28287 12.4909 4.26553 12.947 3.97776 13.2261L3.96529 13.2382C3.66798 13.5266 3.19316 13.5194 2.90475 13.2221C2.85554 13.1713 2.81493 13.1154 2.7829 13.0562C0.592795 10.4519 0.750393 6.60524 3.25001 4.18064C5.63669 1.86559 9.34703 1.63346 12 3.47928C14.653 1.63346 18.3633 1.86559 20.75 4.18064C23.2498 6.60547 23.4072 10.4526 21.2165 13.0569C21.1805 13.1233 21.1344 13.1846 21.0791 13.2382L12.5222 21.5383C12.231 21.8208 11.7679 21.8205 11.4771 21.5376L5.97706 16.1877C5.68014 15.8988 5.67357 15.424 5.96239 15.1271C6.2512 14.8302 6.72603 14.8236 7.02295 15.1124L12.0007 19.9544L19.9189 12.2739C19.938 12.2451 19.9593 12.2173 19.9829 12.1907C21.7593 10.1838 21.6689 7.16167 19.7056 5.25734Z" fill="black"/>
<path fill-rule="evenodd" clip-rule="evenodd" d="M15.25 6C15.25 5.58579 15.5858 5.25 16 5.25C18.0711 5.25 19.75 6.92893 19.75 9C19.75 9.41421 19.4142 9.75 19 9.75C18.5858 9.75 18.25 9.41421 18.25 9C18.25 7.75736 17.2426 6.75 16 6.75C15.5858 6.75 15.25 6.41421 15.25 6Z" fill="black"/>
</svg>
